<?xml version="1.0" encoding="UTF-8"?>
<svg width="2600px" height="1400px" viewBox="0 0 2600 1400" version="1.1" xmlns="http://www.w3.org/2000/svg" xmlns:xlink="http://www.w3.org/1999/xlink">
    <title>official-logo-white</title>
    <g id="biwabits-design" stroke="none" stroke-width="1" fill="none" fill-rule="evenodd">
        <g id="mka-space-logos">
            <rect id="background" fill="#FFFFFF" x="0" y="0" width="2600" height="1400"></rect>
            <g id="text" transform="translate(766.000000, 1122.000000)" fill="#5E5E5E" fill-rule="nonzero">
                <path d="M632.761833,97.3162135 L632.761833,97.3162135 C640.516113,97.3162135 646.978013,95.926905 652.147533,93.148288 L652.147533,93.148288 L652.147533,93.148288 C657.317053,90.369671 659.901813,86.2663646 659.901813,80.8383686 L659.901813,80.8383686 L659.901813,80.8383686 C659.901813,76.0565626 657.834005,72.2440416 653.698389,69.4008056 L653.698389,69.4008056 L653.698389,69.4008056 C649.562773,66.5575697 643.617825,63.7143337 635.863545,60.8710977 L635.863545,60.8710977 L631.404834,59.1263847 L631.404834,59.1263847 C621.711984,55.2492447 614.474656,51.2428667 609.69285,47.1072508 L609.69285,47.1072508 L609.69285,47.1072508 C604.911044,42.9716348 602.520141,37.2205438 602.520141,29.8539778 L602.520141,29.8539778 L602.520141,29.8539778 C602.520141,20.1611279 605.686472,12.8591809 612.019134,7.94813696 L612.019134,7.94813696 L612.019134,7.94813696 C615.767036,5.10490097 619.708795,3.06940248 623.844411,1.84164149 L623.844411,1.84164149 L623.844411,1.84164149 C627.980027,0.613880497 632.826452,2.27373675e-13 638.383686,2.27373675e-13 L638.383686,2.27373675e-13 L638.383686,2.27373675e-13 C646.267204,2.27373675e-13 656.024673,2.45552199 667.656093,7.36656596 L667.656093,7.36656596 L663.97281,18.8041289 L663.97281,18.8041289 C653.63377,14.6685129 645.621014,12.6007049 639.934542,12.6007049 L639.934542,12.6007049 L639.934542,12.6007049 C632.438738,12.6007049 626.526099,13.9900134 622.196626,16.7686304 L622.196626,16.7686304 L622.196626,16.7686304 C617.867153,19.5472474 615.702417,23.4566969 615.702417,28.4969789 L615.702417,28.4969789 L615.702417,28.4969789 C615.702417,31.9864048 616.833249,34.9588788 619.094914,37.4144008 L619.094914,37.4144008 L619.094914,37.4144008 C621.356579,39.8699228 623.87672,41.7761833 626.655337,43.1331823 L626.655337,43.1331823 L626.655337,43.1331823 C629.433954,44.4901813 633.343404,46.2025848 638.383686,48.2703927 L638.383686,48.2703927 L638.383686,48.2703927 C640.451494,49.1750587 642.325445,49.8858677 644.005539,50.4028197 L644.005539,50.4028197 L644.005539,50.4028197 C650.725915,53.1168177 655.992363,55.5400302 659.804884,57.6724572 L659.804884,57.6724572 L659.804884,57.6724572 C663.617405,59.8048842 666.880665,62.6804297 669.594663,66.2990937 L669.594663,66.2990937 L669.594663,66.2990937 C672.308661,69.9177576 673.66566,74.5057066 673.66566,80.0629406 L673.66566,80.0629406 L673.66566,80.0629406 C673.66566,90.0142665 669.659282,97.5746895 661.646526,102.744209 L661.646526,102.744209 L661.646526,102.744209 C653.63377,107.913729 643.876301,110.498489 632.374119,110.498489 L632.374119,110.498489 L632.374119,110.498489 C626.429171,110.498489 621.518127,109.981537 617.640987,108.947633 L617.640987,108.947633 L617.640987,108.947633 C613.763847,107.913729 607.883518,106.039778 600,103.32578 L600,103.32578 L604.458711,90.9189325 L604.458711,90.9189325 C615.831655,95.1837865 625.266029,97.3162135 632.761833,97.3162135 L632.761833,97.3162135 Z M693.05136,149.269889 L693.05136,34.5065458 L701.968781,34.5065458 L704.488922,40.1283988 L704.488922,40.1283988 C710.821584,35.7343068 717.800436,33.5372608 725.425478,33.5372608 L725.425478,33.5372608 L725.425478,33.5372608 C732.662806,33.5372608 738.801611,35.0881168 743.841893,38.1898288 L743.841893,38.1898288 L743.841893,38.1898288 C754.568647,44.9102048 759.932024,55.8308157 759.932024,70.9516616 L759.932024,70.9516616 L759.932024,70.9516616 C759.932024,83.8754616 756.31336,93.8267875 749.076032,100.805639 L749.076032,100.805639 L749.076032,100.805639 C741.967942,107.526015 733.502853,110.886203 723.680765,110.886203 L723.680765,110.886203 L723.680765,110.886203 C717.348103,110.886203 711.338536,109.658442 705.652064,107.20292 L705.652064,107.20292 L705.652064,149.269889 L693.05136,149.269889 Z M722.323766,44.0055388 L722.323766,44.0055388 C718.705102,44.0055388 715.700319,44.3286338 713.309416,44.9748238 L713.309416,44.9748238 L713.309416,44.9748238 C710.918513,45.6210138 708.366062,46.7841558 705.652064,48.4642497 L705.652064,48.4642497 L705.652064,97.3162135 L705.652064,97.3162135 C710.692346,99.6424975 716.184961,100.805639 722.129909,100.805639 L722.129909,100.805639 L722.129909,100.805639 C729.884189,100.805639 735.893756,98.1562605 740.15861,92.8575025 L740.15861,92.8575025 L740.15861,92.8575025 C744.423464,87.5587445 746.555891,80.7091306 746.555891,72.3086606 L746.555891,72.3086606 L746.555891,72.3086606 C746.555891,63.6497147 744.488083,56.7677912 740.352467,51.6628902 L740.352467,51.6628902 L740.352467,51.6628902 C736.216851,46.5579893 730.207284,44.0055388 722.323766,44.0055388 L722.323766,44.0055388 Z M801.998993,44.3932528 L801.998993,44.3932528 C799.284995,44.3932528 796.021735,44.6840383 792.209215,45.2656093 L792.209215,45.2656093 L792.209215,45.2656093 C788.396694,45.8471803 785.004196,46.5902988 782.031722,47.4949648 L782.031722,47.4949648 L779.511581,38.1898288 L779.511581,38.1898288 C788.170527,35.2173548 796.247902,33.7311178 803.743706,33.7311178 L803.743706,33.7311178 L803.743706,33.7311178 C812.144176,33.7311178 818.541457,35.0234978 822.935549,37.6082578 L822.935549,37.6082578 L822.935549,37.6082578 C826.812689,40.4514938 829.494377,43.4885868 830.980614,46.7195368 L830.980614,46.7195368 L830.980614,46.7195368 C832.466851,49.9504867 833.20997,54.6676737 833.20997,60.8710977 L833.20997,60.8710977 L833.20997,108.947633 L823.710977,108.947633 L820.996979,101.968781 L820.996979,101.968781 C813.630413,107.913729 806.06999,110.886203 798.31571,110.886203 L798.31571,110.886203 L798.31571,110.886203 C791.595334,110.886203 785.941172,108.947633 781.353223,105.070493 L781.353223,105.070493 L781.353223,105.070493 C776.765274,101.193353 774.471299,96.2823095 774.471299,90.3373615 L774.471299,90.3373615 L774.471299,90.3373615 C774.471299,84.5216516 776.248322,79.7075361 779.802367,75.8950151 L779.802367,75.8950151 L779.802367,75.8950151 C783.356412,72.0824941 787.718194,69.5300436 792.887714,68.2376636 L792.887714,68.2376636 L792.887714,68.2376636 C799.478852,66.5575697 808.719369,65.5882847 820.609265,65.3298087 L820.609265,65.3298087 L820.609265,64.7482377 L820.609265,64.7482377 C820.609265,59.4494797 820.092313,55.5723397 819.058409,53.1168177 L819.058409,53.1168177 L819.058409,53.1168177 C816.990601,47.3011078 811.304129,44.3932528 801.998993,44.3932528 L801.998993,44.3932528 Z M800.060423,100.805639 L800.060423,100.805639 C804.325277,100.805639 808.073179,100.062521 811.304129,98.576284 L811.304129,98.576284 L811.304129,98.576284 C814.535079,97.090047 817.636791,94.9899295 820.609265,92.2759315 L820.609265,92.2759315 L820.609265,74.4410876 L820.609265,74.4410876 C811.691843,74.5703256 805.100705,75.0872776 800.835851,75.9919436 L800.835851,75.9919436 L800.835851,75.9919436 C796.054045,77.0258476 792.5,78.5443941 790.173716,80.5475831 L790.173716,80.5475831 L790.173716,80.5475831 C787.847432,82.5507721 786.68429,85.3616986 786.68429,88.9803625 L786.68429,88.9803625 L786.68429,88.9803625 C786.68429,92.7282645 788.00898,95.6361195 790.658359,97.7039275 L790.658359,97.7039275 L790.658359,97.7039275 C793.307737,99.7717355 796.441759,100.805639 800.060423,100.805639 L800.060423,100.805639 Z M886.714502,110.692346 L886.714502,110.692346 C875.21232,110.692346 866.327207,107.396777 860.059164,100.805639 L860.059164,100.805639 L860.059164,100.805639 C853.791121,94.2145015 850.6571,84.9739846 850.6571,73.0840886 L850.6571,73.0840886 L850.6571,73.0840886 C850.6571,61.9696207 853.88805,52.4060087 860.34995,44.3932528 L860.34995,44.3932528 L860.34995,44.3932528 C866.81185,37.1559248 876.440081,33.5372608 889.234642,33.5372608 L889.234642,33.5372608 L889.234642,33.5372608 C895.567304,33.5372608 901.899966,34.8942598 908.232628,37.6082578 L908.232628,37.6082578 L905.130916,46.9133938 L905.130916,46.9133938 C900.607586,44.9748238 895.502685,44.0055388 889.816213,44.0055388 L889.816213,44.0055388 L889.816213,44.0055388 C881.02803,44.0055388 874.436892,46.2995133 870.0428,50.8874622 L870.0428,50.8874622 L870.0428,50.8874622 C865.648708,55.4754112 863.451662,62.0988587 863.451662,70.7578046 L863.451662,70.7578046 L863.451662,70.7578046 C863.451662,81.8722726 866.101041,89.5619335 871.399799,93.8267875 L871.399799,93.8267875 L871.399799,93.8267875 C876.698557,98.0916415 883.225076,100.224068 890.979355,100.224068 L890.979355,100.224068 L890.979355,100.224068 C895.890399,100.224068 900.607586,99.3840215 905.130916,97.7039275 L905.130916,97.7039275 L908.038771,106.427492 L908.038771,106.427492 C900.542967,109.270728 893.434877,110.692346 886.714502,110.692346 L886.714502,110.692346 Z M954.370594,33.5372608 L954.370594,33.5372608 C964.192682,33.5372608 971.753105,36.4774253 977.051863,42.3577543 L977.051863,42.3577543 L977.051863,42.3577543 C982.350621,48.2380832 985,56.5416247 985,67.2683787 L985,67.2683787 L985,74.0533736 L984.224572,75.6042296 L933.240181,75.6042296 L933.240181,75.6042296 C933.240181,81.9368916 935.631084,87.8172205 940.41289,93.2452165 L940.41289,93.2452165 L940.41289,93.2452165 C944.93622,97.7685465 951.979691,100.030211 961.543303,100.030211 L961.543303,100.030211 L961.543303,100.030211 C967.875965,100.030211 973.885532,99.0609265 979.572004,97.1223565 L979.572004,97.1223565 L981.898288,106.427492 L981.898288,106.427492 C974.01477,109.14149 966.066633,110.498489 958.053877,110.498489 L958.053877,110.498489 L958.053877,110.498489 C946.034743,110.498489 936.858845,107.267539 930.526183,100.805639 L930.526183,100.805639 L930.526183,100.805639 C924.193521,94.3437395 921.02719,85.1032226 921.02719,73.0840886 L921.02719,73.0840886 L921.02719,73.0840886 C921.02719,61.7111447 923.805807,52.3413897 929.363041,44.9748238 L929.363041,44.9748238 L929.363041,44.9748238 C935.307989,37.3497818 943.64384,33.5372608 954.370594,33.5372608 L954.370594,33.5372608 Z M972.205438,65.5236657 L972.205438,65.5236657 C972.205438,59.0617657 970.81613,53.7630077 968.037513,49.6273917 L968.037513,49.6273917 L968.037513,49.6273917 C965.258896,45.4917758 961.155589,43.4239678 955.727593,43.4239678 L955.727593,43.4239678 L955.727593,43.4239678 C948.877979,43.4239678 943.64384,45.4917758 940.025176,49.6273917 L940.025176,49.6273917 L940.025176,49.6273917 C936.406512,53.7630077 934.209466,59.0617657 933.434038,65.5236657 L933.434038,65.5236657 L972.205438,65.5236657 Z" id="b-cambay-fonts"></path>
                <path d="M84.3329776,5.57097118 C77.6734258,3.39381003 72.8068303,1.9850587 69.733191,1.34471718 C65.1227321,0.448239061 59.2315902,0 52.0597652,0 C45.0160085,0 37.7801494,1.47278549 30.3521878,4.41835646 C23.9487727,6.97972252 18.4418356,10.6296692 13.8313767,15.3681964 C9.47705443,19.7225187 6.0832444,25.1974386 3.64994664,31.7929562 C1.21664888,38.3884739 0,45.8484525 0,54.1728922 C0,70.4375667 4.80256137,83.5645678 14.4076841,93.5538954 C19.018143,98.1643543 24.7171825,101.878335 31.5048026,104.695838 C38.2924226,107.51334 45.7203842,108.922092 53.7886873,108.922092 C65.5709712,108.922092 76.1366062,106.616862 85.4855923,102.006403 L82.411953,92.0170758 C73.3191035,95.47492 65.058698,97.203842 57.6307364,97.203842 C48.6659552,97.203842 40.7897545,95.3468517 34.0021345,91.6328709 C27.8548559,88.0469584 22.9882604,83.0202775 19.4023479,76.5528282 C15.8164354,70.0853789 14.0234792,62.5613661 14.0234792,53.9807898 C14.0234792,45.1440768 15.5923159,37.4919957 18.7299893,31.0245464 C21.8676628,24.5570971 26.3820704,19.5944504 32.2732124,16.1366062 C37.9082177,13.0629669 45.7203842,11.5261473 55.7097118,11.5261473 C60.7043757,11.5261473 64.9626467,11.8783351 68.4845251,12.5827108 C72.0064034,13.2870864 76.072572,14.4076841 80.6830309,15.9445037 L84.3329776,5.57097118 Z M140.522946,32.945571 C142.251868,33.2657417 143.948773,33.810032 145.613661,34.5784418 L141.195304,45.7203842 C137.865528,44.1835646 134.215582,43.4151547 130.245464,43.4151547 C124.866596,43.4151547 119.551761,45.208111 114.300961,48.7940235 L114.300961,107.19317 L101.814301,107.19317 L101.814301,33.4258271 L110.843116,33.4258271 L113.532551,39.7652081 C119.935966,34.8986126 126.659552,32.4653148 133.703308,32.4653148 C136.520811,32.4653148 138.794023,32.6254002 140.522946,32.945571 Z M210.160085,41.2059765 C215.410886,47.0330843 218.036286,55.2614728 218.036286,65.8911419 L218.036286,72.6147279 L217.267876,74.1515475 L166.744931,74.1515475 C166.744931,80.4268943 169.114194,86.2540021 173.852721,91.6328709 C178.335112,96.1152615 185.314835,98.3564568 194.791889,98.3564568 C201.067236,98.3564568 207.022412,97.3959445 212.657417,95.47492 L214.962647,104.695838 C207.15048,107.385272 199.27428,108.729989 191.334045,108.729989 C179.423693,108.729989 170.330843,105.528282 164.055496,99.1248666 C157.780149,92.7214514 154.642476,83.5645678 154.642476,71.6542156 C154.642476,60.3842049 157.395945,51.0992529 162.902882,43.7993597 C168.794023,36.2433298 177.054429,32.4653148 187.684098,32.4653148 C197.417289,32.4653148 204.909285,35.3788687 210.160085,41.2059765 Z M205.357524,64.1622199 C205.357524,57.7588047 203.98079,52.5080043 201.227321,48.4098186 C198.473853,44.3116329 194.407684,42.26254 189.028815,42.26254 C182.241195,42.26254 177.054429,44.3116329 173.468517,48.4098186 C169.882604,52.5080043 167.705443,57.7588047 166.937033,64.1622199 L205.357524,64.1622199 Z M249.829242,44.0875133 C246.051227,44.6638207 242.689434,45.4002134 239.743863,46.2966916 L237.246531,37.0757737 C245.827108,34.1302028 253.831377,32.6574173 261.259338,32.6574173 C269.583778,32.6574173 275.923159,33.9381003 280.277481,36.4994664 C284.11953,39.3169691 286.776948,42.3265742 288.249733,45.5282818 C289.722519,48.7299893 290.458911,53.4044824 290.458911,59.5517609 L290.458911,107.19317 L281.045891,107.19317 L278.356457,100.277481 C271.056564,106.168623 263.564568,109.114194 255.88047,109.114194 C249.220918,109.114194 243.61793,107.19317 239.071505,103.351121 C234.52508,99.5090715 232.251868,94.642476 232.251868,88.751334 C232.251868,82.9882604 234.012807,78.2177161 237.534685,74.4397012 C241.056564,70.6616862 245.378869,68.1323372 250.501601,66.8516542 C257.033084,65.1867663 266.189968,64.226254 277.972252,63.9701174 L277.972252,63.39381 C277.972252,58.1430096 277.459979,54.3009605 276.435432,51.8676628 C274.386339,46.1045891 268.751334,43.2230523 259.530416,43.2230523 C256.840982,43.2230523 253.607257,43.511206 249.829242,44.0875133 Z M268.751334,96.9156884 C271.953042,95.4429029 275.026681,93.361793 277.972252,90.6723586 L277.972252,72.9989328 C269.135539,73.1270011 262.604055,73.6392743 258.377801,74.5357524 C253.639274,75.5602988 250.117396,77.0651014 247.812166,79.0501601 C245.506937,81.0352188 244.354322,83.8207044 244.354322,87.4066169 C244.354322,91.1205977 245.667022,94.0021345 248.292423,96.0512273 C250.917823,98.1003202 254.023479,99.1248666 257.609392,99.1248666 C261.835646,99.1248666 265.549626,98.3884739 268.751334,96.9156884 Z M320.715048,102.678762 C317.577375,98.6446105 316.008538,92.529349 316.008538,84.3329776 L316.008538,43.7993597 L303.521878,43.7993597 L303.521878,33.4258271 L316.008538,33.4258271 L316.008538,15.3681964 L328.495197,14.4076841 L328.495197,33.4258271 L352.700107,33.4258271 L352.700107,43.7993597 L328.495197,43.7993597 L328.495197,83.5645678 C328.495197,88.6872999 329.295624,92.4012807 330.896478,94.7065101 C332.497332,97.0117396 335.602988,98.1643543 340.213447,98.1643543 C344.567769,98.1643543 348.473853,97.7801494 351.931697,97.0117396 L354.044824,105.464248 C348.28175,107.641409 342.454642,108.729989 336.563501,108.729989 C329.135539,108.729989 323.852721,106.712914 320.715048,102.678762 Z M369.220918,16.8089648 C367.684098,15.208111 366.915688,13.3191035 366.915688,11.1419424 C366.915688,9.09284952 367.684098,7.2678762 369.220918,5.66702241 C370.757737,4.06616862 372.678762,3.26574173 374.983991,3.26574173 C377.161153,3.26574173 379.018143,4.06616862 380.554963,5.66702241 C382.091782,7.2678762 382.860192,9.09284952 382.860192,11.1419424 C382.860192,13.3191035 382.123799,15.208111 380.651014,16.8089648 C379.178228,18.4098186 377.289221,19.2102455 374.983991,19.2102455 C372.678762,19.2102455 370.757737,18.4098186 369.220918,16.8089648 Z M381.13127,33.4258271 L381.13127,107.19317 L368.64461,107.19317 L368.64461,33.4258271 L381.13127,33.4258271 Z M437.801494,107.19317 L423.970117,107.19317 L396.499466,33.4258271 L409.946638,33.4258271 L430.309498,91.248666 L431.077908,95.090715 L431.654216,91.248666 L452.209178,33.4258271 L465.080043,33.4258271 L437.801494,107.19317 Z M532.123799,41.2059765 C537.3746,47.0330843 540,55.2614728 540,65.8911419 L540,72.6147279 L539.23159,74.1515475 L488.708645,74.1515475 C488.708645,80.4268943 491.077908,86.2540021 495.816435,91.6328709 C500.298826,96.1152615 507.278549,98.3564568 516.755603,98.3564568 C523.03095,98.3564568 528.986126,97.3959445 534.621131,95.47492 L536.926361,104.695838 C529.114194,107.385272 521.237994,108.729989 513.297759,108.729989 C501.387407,108.729989 492.294557,105.528282 486.01921,99.1248666 C479.743863,92.7214514 476.60619,83.5645678 476.60619,71.6542156 C476.60619,60.3842049 479.359658,51.0992529 484.866596,43.7993597 C490.757737,36.2433298 499.018143,32.4653148 509.647812,32.4653148 C519.381003,32.4653148 526.872999,35.3788687 532.123799,41.2059765 Z M527.321238,64.1622199 C527.321238,57.7588047 525.944504,52.5080043 523.191035,48.4098186 C520.437567,44.3116329 516.371398,42.26254 510.992529,42.26254 C504.204909,42.26254 499.018143,44.3116329 495.432231,48.4098186 C491.846318,52.5080043 489.669157,57.7588047 488.900747,64.1622199 L527.321238,64.1622199 Z" id="a-cambay-fonts"></path>
            </g>
            <g id="logo" transform="translate(161.363356, 128.000000)" fill="#5E5E5E">
                <path d="M5.39595866,937.839158 C-0.476023992,928.883549 -1.13686838e-13,921.550419 -1.13686838e-13,906.404888 C-1.13686838e-13,497.199718 -1.13686838e-13,271.762826 -1.13686838e-13,230.094212 C-1.13686838e-13,165.277928 94.0991646,68.8435089 238.018628,68.8435089 C317.276339,68.8435089 388.312243,100.262706 438.274083,145.162296 C479.03504,181.793258 506.779243,233.599211 539.664541,233.599211 C572.54984,233.599211 597.470787,175.547389 658.527818,130.371189 C719.584849,85.1949904 748.036101,68.8435089 893.210114,68.8435089 C1039.24318,68.8435089 1078.2626,58.2267813 1078.2626,115.835523 C1078.2626,154.241351 1078.2626,192.327581 1078.2626,230.094212 L1078.2626,900.919299 C1077.67555,919.169494 1074.29845,932.165068 1068.13131,939.90602 C1061.96417,947.646973 1048.70159,951.210536 1028.34357,950.596709 L824.987301,950.596709 C806.897093,950.913269 795.0952,947.349706 789.581621,939.90602 C781.311252,928.740492 777.896411,917.708739 777.896411,900.919299 C777.896411,610.706116 777.896411,450.872708 777.896411,421.419075 C777.896411,407.850601 766.594916,394.303575 750.399456,403.764891 C738.851534,410.511135 681.418996,475.836927 631.679539,531.121854 C581.940081,586.406781 566.244265,612.449212 539.664541,612.449212 C513.084817,612.449212 504.691517,596.057495 445.721632,530.397302 C386.751747,464.737108 342.512096,416.975306 332.347681,407.760116 C323.57251,399.804432 298.126264,403.764891 298.126264,421.419075 C298.126264,518.447908 298.126264,678.7293 298.126264,902.26325 C298.126264,918.699109 295.366727,931.41011 289.542468,939.90602 C285.659629,945.569961 276.809441,949.133524 262.991903,950.596709 L29.1868597,949.596709 C17.2409141,947.728747 9.31061376,943.809563 5.39595866,937.839158 Z" id="a-m-path"></path>
                <path d="M1075.6232,413.195631 L1075.6232,508.661589 C1079.73254,535.266853 1089.52178,558.98373 1104.99092,579.812221 C1130.81122,614.578082 1178.01501,661.027352 1230.57448,716.664126 C1299.44064,789.562315 1399.87573,897.331701 1425.97211,922.197384 C1452.06848,947.063068 1460.24397,950.664356 1483.0488,950.664356 C1505.85364,950.664356 1753.30805,951.805049 1765.20785,950.664356 C1777.10764,949.523663 1795.24543,940.51693 1778.57914,922.197384 C1761.91286,903.877839 1358.59118,469.187947 1350.40792,459.640146 C1342.22466,450.092346 1345.36931,431.946459 1350.40792,420.950632 C1355.44653,409.954805 1633.14284,113.997169 1643.22162,103.168325 C1653.3004,92.3394818 1661.43994,65.6265567 1633.94959,65.6265567 C1512.92465,65.6265567 1407.53261,63.7498219 1382.69555,68.0734666 C1357.8585,72.3971114 1279.0682,110.457411 1189.65176,209.218752 C1130.0408,275.059646 1092.03128,343.051939 1075.6232,413.195631 Z" id="b-k-path"></path>
                <path d="M2053.46466,102.425608 C2131.80383,146.447879 2136.10903,229.351124 2136.10903,277.564077 L2136.10903,923.739751 L2136.10903,923.739751 C2136.10903,959.071247 2106.69293,950.664356 1994.24036,950.664356 C1919.27197,950.664356 1814.63052,873.540332 1680.31598,719.292285 L1447.34545,468.879693 C1428.71162,452.26504 1428.71162,433.129077 1447.34545,411.471804 C1475.2962,378.985894 1647.21493,190.754302 1680.31598,156.992282 C1713.41704,123.230262 1781.98175,66.1518467 1854.35036,66.1518467 C1923.23857,66.1518467 1975.12549,58.4033361 2053.46466,102.425608 Z M1833.75552,429.285361 C1833.75552,410.497877 1817.20867,386.76917 1784.73955,423.922108 C1752.27043,461.075046 1665.45665,545.919877 1641.55875,572.326174 C1617.66085,598.73247 1656.27236,618.02671 1672.09806,618.02671 L1672.09806,618.02671 L1805.07245,618.02671 C1832.66253,618.02671 1833.75552,594.843065 1833.75552,569.813345 Z" id="c-a-path"></path>
                <path d="M2210.63664,0 C2247.08744,0 2276.63664,29.5492065 2276.63664,66 C2276.63664,102.450793 2247.08744,132 2210.63664,132 C2174.18585,132 2144.63664,102.450793 2144.63664,66 C2144.63664,29.5492065 2174.18585,0 2210.63664,0 Z M2210.63664,13.4693878 C2181.62479,13.4693878 2158.10603,36.988144 2158.10603,66 C2158.10603,95.011856 2181.62479,118.530612 2210.63664,118.530612 C2239.6485,118.530612 2263.16726,95.011856 2263.16726,66 C2263.16726,36.988144 2239.6485,13.4693878 2210.63664,13.4693878 Z M2210.63664,28.9591837 C2228.07738,28.9591837 2242.70279,41.0130022 2246.63657,57.2443348 L2228.85024,57.2445442 C2225.58804,50.4706993 2218.65827,45.7959184 2210.63664,45.7959184 C2199.47824,45.7959184 2190.43256,54.8415938 2190.43256,66 C2190.43256,77.1584062 2199.47824,86.2040816 2210.63664,86.2040816 C2218.92149,86.2040816 2226.04165,81.2174718 2229.15944,74.0819381 L2246.79315,74.0820189 C2243.1055,90.6523642 2228.31781,103.040816 2210.63664,103.040816 C2190.17957,103.040816 2173.59583,86.457078 2173.59583,66 C2173.59583,45.542922 2190.17957,28.9591837 2210.63664,28.9591837 Z" id="d-copyrigth" fill-rule="nonzero"></path>
            </g>
        </g>
    </g>
</svg>